HIERARCHY
ROOT Hips
{
	OFFSET 0.000000 0.000000 0.000000
	CHANNELS 6 Xposition Yposition Zposition Zrotation Yrotation Xrotation 
	JOINT LHipJoint
	{
		OFFSET 0.000000 0.000000 0.000000
		CHANNELS 3 Zrotation Yrotation Xrotation
		JOINT LeftUpLeg
		{
			OFFSET 1.363060 -1.794630 0.839290
			CHANNELS 3 Zrotation Yrotation Xrotation
			JOINT LeftLeg
			{
				OFFSET 2.448110 -6.726130 0.000000
				CHANNELS 3 Zrotation Yrotation Xrotation
				JOINT LeftFoot
				{
					OFFSET 2.562200 -7.039590 0.000000
					CHANNELS 3 Zrotation Yrotation Xrotation
					JOINT LeftToeBase
					{
						OFFSET 0.157640 -0.433110 2.322550
						CHANNELS 3 Zrotation Yrotation Xrotation
						End Site
						{
							OFFSET 0.000000 0.000000 0.000000
						}
					}
				}
			}
		}
	}
	JOINT RHipJoint
	{
		OFFSET 0.000000 0.000000 0.000000
		CHANNELS 3 Zrotation Yrotation Xrotation
		JOINT RightUpLeg
		{
			OFFSET -1.305520 -1.794630 0.839290
			CHANNELS 3 Zrotation Yrotation Xrotation
			JOINT RightLeg
			{
				OFFSET -2.542530 -6.985550 0.000000
				CHANNELS 3 Zrotation Yrotation Xrotation
				JOINT RightFoot
				{
					OFFSET -2.568260 -7.056230 0.000000
					CHANNELS 3 Zrotation Yrotation Xrotation
					JOINT RightToeBase
					{
						OFFSET -0.164730 -0.452590 2.363150
						CHANNELS 3 Zrotation Yrotation Xrotation
						End Site
						{
							OFFSET 0.000000 0.000000 0.000000
						}
					}
				}
			}
		}
	}
	JOINT LowerBack
	{
		OFFSET 0.000000 0.000000 0.000000
		CHANNELS 3 Zrotation Yrotation Xrotation
		JOINT Spine
		{
			OFFSET 0.028270 2.035590 -0.193380
			CHANNELS 3 Zrotation Yrotation Xrotation
			JOINT Spine1
			{
				OFFSET 0.056720 2.048850 -0.042750
				CHANNELS 3 Zrotation Yrotation Xrotation
				JOINT Neck
				{
					OFFSET 0.000000 0.000000 0.000000
					CHANNELS 3 Zrotation Yrotation Xrotation
					JOINT Neck1
					{
						OFFSET -0.054170 1.746240 0.172020
						CHANNELS 3 Zrotation Yrotation Xrotation
						JOINT Head
						{
							OFFSET 0.104070 1.761360 -0.123970
							CHANNELS 3 Zrotation Yrotation Xrotation
							End Site
							{
								OFFSET 0.000000 0.000000 0.000000
							}
						}
					}
				}
				JOINT LeftShoulder
				{
					OFFSET 0.000000 0.000000 0.000000
					CHANNELS 3 Zrotation Yrotation Xrotation
					JOINT LeftArm
					{
						OFFSET 3.362410 1.200890 -0.311210
						CHANNELS 3 Zrotation Yrotation Xrotation
						JOINT LeftForeArm
						{
							OFFSET 4.983000 -0.000000 -0.000000
							CHANNELS 3 Zrotation Yrotation Xrotation
							JOINT LeftHand
							{
								OFFSET 3.483560 -0.000000 -0.000000
								CHANNELS 3 Zrotation Yrotation Xrotation
								JOINT LeftFingerBase
								{
									OFFSET 0.000000 0.000000 0.000000
									CHANNELS 3 Zrotation Yrotation Xrotation
									JOINT LeftHandIndex1
									{
										OFFSET 0.715260 -0.000000 -0.000000
										CHANNELS 3 Zrotation Yrotation Xrotation
										End Site
										{
											OFFSET 0.000000 0.000000 0.000000
										}
									}
								}
								JOINT LThumb
								{
									OFFSET 0.000000 0.000000 0.000000
									CHANNELS 3 Zrotation Yrotation Xrotation
									End Site
									{
										OFFSET 0.000000 0.000000 0.000000
									}
								}
							}
						}
					}
				}
				JOINT RightShoulder
				{
					OFFSET 0.000000 0.000000 0.000000
					CHANNELS 3 Zrotation Yrotation Xrotation
					JOINT RightArm
					{
						OFFSET -3.136600 1.374050 -0.404650
						CHANNELS 3 Zrotation Yrotation Xrotation
						JOINT RightForeArm
						{
							OFFSET -5.241900 -0.000000 -0.000000
							CHANNELS 3 Zrotation Yrotation Xrotation
							JOINT RightHand
							{
								OFFSET -3.444170 -0.000000 -0.000000
								CHANNELS 3 Zrotation Yrotation Xrotation
								JOINT RightFingerBase
								{
									OFFSET 0.000000 0.000000 0.000000
									CHANNELS 3 Zrotation Yrotation Xrotation
									JOINT RightHandIndex1
									{
										OFFSET -0.622530 -0.000000 -0.000000
										CHANNELS 3 Zrotation Yrotation Xrotation
										End Site
										{
											OFFSET 0.000000 0.000000 0.000000
										}
									}
								}
								JOINT RThumb
								{
									OFFSET 0.000000 0.000000 0.000000
									CHANNELS 3 Zrotation Yrotation Xrotation
									End Site
									{
										OFFSET 0.000000 0.000000 0.000000
									}
								}
							}
						}
					}
				}
			}
		}
	}
}
MOTION
Frames: 12
Frame Time: 0.008333
-12.665388 15.637910 -1.417478 133.578379 88.254725 166.164665 -11.038532 0.565195 -5.441125 -7.809759 11.228071 -28.217388 -2.776322 2.629678 46.730422 1.642024 5.791086 -23.708291 -2.134300 0.000001 -60.289400 7.834961 1.392173 -1.617055 18.592107 0.745158 -74.499146 2.652291 -5.484986 51.067747 -0.708157 0.407505 -12.375967 0.022500 0.000000 -14.470000 3.586212 -2.921231 10.637137 0.027680 -2.784184 -0.648903 -5.630901 -2.703524 -0.150064 8.203047 -12.535817 -7.718450 -3.062339 -0.200762 -0.498166 0.000000 0.000000 0.000000 5.712130 6.748163 1.504162 -51.514079 2.409417 -3.432063 -178.713493 -74.645263 -179.965529 -5.300350 0.640353 -0.012704 0.041236 0.359644 0.000000 0.000000 0.000000 0.000000 0.000000 0.000000 0.000000 11.630102 -8.740075 1.150667 70.333844 -20.727076 6.425658 0.407332 76.686788 -0.025856 -7.801210 -0.899933 0.050129 0.128052 -0.187824 -0.000000 0.000000 0.000000 0.000000 0.000000 0.000000 0.000000 
-12.475429 15.625987 -1.388654 132.984471 87.961707 165.276548 -11.159908 0.623085 -5.444605 -7.415959 11.204582 -27.419607 -2.620466 2.671385 47.156018 1.495849 5.518666 -22.132124 -1.837600 0.000001 -62.907200 7.857736 1.458034 -1.760126 18.101202 0.618380 -74.038608 2.443858 -5.562212 52.743082 -0.833604 0.113169 -13.621020 0.095200 0.000000 -8.540200 3.847947 -2.951488 10.768366 0.090883 -2.803909 -0.634735 -5.602311 -2.725398 -0.179550 8.228988 -12.263530 -7.580025 -3.120664 -0.206616 -0.460190 0.000000 0.000000 0.000000 5.688567 6.645375 1.491226 -52.676327 3.275365 -3.138590 -178.781722 -75.369941 -179.965527 -5.381503 0.610036 -0.011703 0.044276 0.354127 0.000000 0.000000 0.000000 0.000000 0.000000 0.000000 0.000000 11.878763 -8.537940 1.124276 70.382044 -20.017682 6.055952 0.426136 76.146287 -0.026556 -7.981811 -0.908760 0.051924 0.130457 -0.188144 -0.000000 0.000000 0.000000 0.000000 0.000000 0.000000 0.000000 
-12.286923 15.617502 -1.359994 133.450394 87.690399 165.484593 -11.284566 0.672390 -5.438187 -6.994317 11.134805 -26.811822 -2.436844 2.737009 47.775262 1.355050 5.279905 -20.361074 -1.540100 -0.000001 -65.113300 7.874031 1.510994 -1.892922 17.686420 0.528639 -73.532885 2.262831 -5.621075 54.259206 -0.974360 -0.247716 -14.894175 0.184200 0.000000 -4.031600 4.130386 -2.977288 10.881518 0.155553 -2.819665 -0.623946 -5.581994 -2.743832 -0.208657 8.280783 -11.959796 -7.421525 -3.181446 -0.212800 -0.416948 0.000000 0.000000 0.000000 5.673781 6.532246 1.476119 -53.903975 4.144919 -2.809314 -178.861910 -76.225803 -179.965848 -5.428485 0.628913 -0.013100 0.046601 0.347201 0.000000 0.000000 0.000000 0.000000 0.000000 0.000000 0.000000 12.165149 -8.318349 1.093473 70.399257 -19.186052 5.683159 0.446055 75.541659 -0.027521 -8.225246 -0.961101 0.057318 0.133641 -0.188070 -0.000000 0.000000 0.000000 0.000000 0.000000 0.000000 0.000000 
-12.100143 15.612559 -1.331281 134.672114 87.432548 166.492980 -11.404351 0.711915 -5.419620 -6.565214 11.003533 -26.413556 -2.226443 2.823072 48.597548 1.230001 5.104592 -18.437769 -1.256300 0.000000 -66.660400 7.888280 1.551339 -2.013715 17.347380 0.466528 -72.989936 2.110526 -5.662690 55.592666 -1.127797 -0.663252 -16.174387 0.292800 0.000001 -0.828100 4.430998 -2.998343 10.971164 0.221143 -2.831438 -0.617397 -5.570449 -2.758887 -0.236952 8.360578 -11.632938 -7.246288 -3.242743 -0.219130 -0.369242 0.000000 0.000000 0.000000 5.665913 6.403882 1.459336 -55.176309 5.015560 -2.447378 -178.952831 -77.207037 -179.966479 -5.440168 0.695447 -0.016695 0.048238 0.338933 0.000000 0.000000 0.000000 0.000000 0.000000 0.000000 0.000000 12.485104 -8.088234 1.059161 70.388449 -18.241945 5.305421 0.466336 74.889557 -0.028761 -8.530351 -1.061849 0.067012 0.137569 -0.187591 -0.000000 0.000000 0.000000 0.000000 0.000000 0.000000 0.000000 
-11.915314 15.611119 -1.302275 136.349912 87.179081 168.008556 -11.513290 0.740232 -5.387109 -6.152596 10.799087 -26.239657 -1.993007 2.925367 49.626762 1.130810 5.023297 -16.429034 -0.998200 0.000000 -67.319300 7.903318 1.580906 -2.121113 17.076710 0.422371 -72.420334 1.985951 -5.688188 56.732053 -1.290851 -1.121212 -17.436388 -179.577900 -0.000000 -1.231600 4.742001 -3.013725 11.032774 0.286078 -2.838849 -0.615615 -5.567490 -2.770188 -0.263386 8.469515 -11.289990 -7.059302 -3.302490 -0.225400 -0.318348 0.000000 0.000000 0.000000 5.664627 6.263881 1.441758 -56.473376 5.874706 -2.049413 -179.052759 -78.309195 -179.967381 -5.418804 0.805498 -0.022291 0.049233 0.329478 0.000000 0.000000 0.000000 0.000000 0.000000 0.000000 0.000000 12.832910 -7.851904 1.021713 70.354938 -17.200550 4.918368 0.485980 74.213183 -0.030271 -8.891044 -1.212352 0.081804 0.142128 -0.186753 -0.000000 0.000000 0.000000 0.000000 0.000000 0.000000 0.000000 
-11.732717 15.612973 -1.272829 138.191278 86.921814 169.740380 -11.607646 0.755675 -5.341140 -5.779751 10.517316 -26.293610 -1.742850 3.039337 50.859082 1.065592 5.064070 -14.423079 -0.773000 -0.000001 -66.903099 7.920753 1.602487 -2.215835 16.862370 0.384278 -71.831068 1.886560 -5.698793 57.677167 -1.459203 -1.605926 -18.652621 -179.429500 -0.000000 -2.336200 5.052306 -3.022105 11.066864 0.348246 -2.840974 -0.618256 -5.572234 -2.776757 -0.287695 8.606761 -10.937458 -6.865929 -3.358445 -0.231387 -0.265733 0.000000 0.000000 0.000000 5.668793 6.115823 1.424795 -57.773887 6.711507 -1.610808 -179.159519 -79.524246 -179.968499 -5.369297 0.951867 -0.029487 0.049679 0.319043 0.000000 0.000000 0.000000 0.000000 0.000000 0.000000 0.000000 13.199476 -7.611727 0.981958 70.306458 -16.080219 4.516615 0.503888 73.539007 -0.032028 -9.296514 -1.409821 0.101896 0.147130 -0.185663 -0.000000 0.000000 0.000000 0.000000 0.000000 0.000000 0.000000 
-11.552533 15.617805 -1.242713 139.889854 86.652120 171.382192 -11.685238 0.756950 -5.282841 -5.472777 10.158534 -26.573631 -1.483735 3.160093 52.284073 1.039444 5.251505 -12.521288 -0.582500 0.000001 -65.293700 7.941696 1.618887 -2.297781 16.686068 0.340641 -71.233397 1.808295 -5.696305 58.438711 -1.627431 -2.099695 -19.792850 -179.266700 0.000000 -2.657000 5.346565 -3.022885 11.073770 0.404953 -2.837484 -0.625397 -5.583231 -2.778194 -0.310602 8.769819 -10.580203 -6.670784 -3.408309 -0.236886 -0.212596 0.000000 0.000000 0.000000 5.676246 5.959542 1.410374 -59.055754 7.523533 -1.127526 -179.270619 -80.839577 -179.969764 -5.299697 1.125946 -0.037783 0.049723 0.307813 0.000000 0.000000 0.000000 0.000000 0.000000 0.000000 0.000000 13.572846 -7.367735 0.940986 70.254427 -14.902708 4.094995 0.518964 72.894659 -0.033999 -9.732980 -1.646132 0.127186 0.152356 -0.184497 -0.000000 0.000000 0.000000 0.000000 0.000000 0.000000 0.000000 
-11.374938 15.625259 -1.211713 141.181979 86.364116 172.666450 -11.745217 0.742922 -5.215909 -5.256006 9.731480 -27.068121 -1.223799 3.283185 53.882393 1.053891 5.604760 -10.826203 -0.424300 0.000000 -62.496100 7.967119 1.632733 -2.367978 16.525878 0.279384 -70.635868 1.746680 -5.683085 59.035218 -1.789325 -2.582732 -20.830755 -179.096801 0.000000 -2.359500 5.607448 -3.016791 11.058304 0.453443 -2.828889 -0.636190 -5.598040 -2.774840 -0.332985 8.953794 -10.223531 -6.478713 -3.449425 -0.241666 -0.160299 0.000000 0.000000 0.000000 5.683558 5.796332 1.400531 -60.296363 8.311532 -0.595956 -179.383405 -82.237154 -179.971114 -5.216686 1.314116 -0.046379 0.049474 0.296076 0.000000 0.000000 0.000000 0.000000 0.000000 0.000000 0.000000 13.936652 -7.120348 0.899976 70.210370 -13.686019 3.655158 0.530289 72.303623 -0.036135 -10.183591 -1.908399 0.156775 0.157555 -0.183471 -0.000000 0.000000 0.000000 0.000000 0.000000 0.000000 0.000000 
-11.200045 15.634968 -1.180035 142.071202 86.062222 173.589550 -11.789039 0.711677 -5.145491 -5.132687 9.259976 -27.763961 -0.970396 3.406767 55.632291 1.105590 6.122641 -9.424384 -0.293700 -0.000000 -58.590200 7.996731 1.643557 -2.428390 16.377066 0.196142 -70.041105 1.698577 -5.661699 59.488809 -1.939178 -3.036232 -21.748561 -178.927900 0.000000 -1.631800 5.832959 -3.000884 11.027207 0.493740 -2.811971 -0.649774 -5.614689 -2.763440 -0.356730 9.151378 -9.865390 -6.292733 -3.480340 -0.245607 -0.109755 0.000000 0.000000 0.000000 5.689045 5.632416 1.397762 -61.483550 9.065872 -0.003436 -179.495992 -83.709945 -179.972446 -5.138013 1.513346 -0.055279 0.049187 0.283899 0.000000 0.000000 0.000000 0.000000 0.000000 0.000000 0.000000 14.275552 -6.860417 0.859519 70.183419 -12.461246 3.187026 0.536783 71.800037 -0.038387 -10.631283 -2.183652 0.189764 0.162490 -0.182817 -0.000000 0.000000 0.000000 0.000000 0.000000 0.000000 0.000000 
-11.027960 15.646627 -1.147758 142.521771 85.751461 174.109146 -11.817725 0.662894 -5.076403 -5.109220 8.766907 -28.644117 -0.729079 3.529301 57.501060 1.190337 6.802067 -8.378392 -0.188600 0.000000 -53.813800 8.030944 1.651536 -2.479849 16.229699 0.088521 -69.454854 1.660820 -5.634824 59.825004 -2.071831 -3.442186 -22.537523 -178.768800 0.000000 -0.640501 6.017586 -2.974432 10.985999 0.525427 -2.785652 -0.665779 -5.630410 -2.742876 -0.384294 9.353176 -9.502404 -6.114065 -3.499189 -0.248587 -0.061322 0.000000 0.000000 0.000000 5.687156 5.469170 1.404383 -62.601909 9.791913 0.654846 -179.606472 -85.240096 -179.973697 -5.075025 1.714706 -0.064181 0.049011 0.271452 0.000000 0.000000 0.000000 0.000000 0.000000 0.000000 0.000000 14.569445 -6.578763 0.820371 70.183343 -11.253474 2.690659 0.537862 71.406834 -0.040689 -11.056690 -2.454731 0.223952 0.166920 -0.182783 -0.000000 0.000000 0.000000 0.000000 0.000000 0.000000 0.000000 
-10.858798 15.659968 -1.114655 142.406826 85.435361 174.088716 -11.831800 0.597913 -5.014687 -5.199104 8.273298 -29.679277 -0.502761 3.648788 59.441404 1.303989 7.637000 -7.701046 -0.108900 -0.000000 -48.641301 8.071034 1.658719 -2.525023 16.064878 -0.050120 -68.881075 1.630790 -5.605617 60.074292 -2.182793 -3.780578 -23.208281 1.373600 -0.000000 -0.404100 6.144841 -2.940092 10.944944 0.546147 -2.751688 -0.681816 -5.641614 -2.714609 -0.414966 9.550989 -9.144710 -5.947126 -3.503318 -0.250377 -0.016366 0.000000 0.000000 0.000000 5.672102 5.312249 1.420850 -63.633737 10.498621 1.379398 -179.713119 -86.802284 -179.974851 -5.029408 1.900627 -0.072385 0.048958 0.259065 0.000000 0.000000 0.000000 0.000000 0.000000 0.000000 0.000000 14.798718 -6.283034 0.782776 70.215717 -10.057992 2.195967 0.533736 71.124400 -0.042982 -11.446037 -2.703226 0.257039 0.170715 -0.183564 -0.000000 0.000000 0.000000 0.000000 0.000000 0.000000 0.000000 
-10.692437 15.674801 -1.081410 141.969629 85.131879 173.765882 -11.834021 0.516474 -4.962991 -5.379612 7.807674 -30.855367 -0.293701 3.766849 61.417390 1.440062 8.591914 -7.391361 -0.060300 -0.000000 -43.308700 8.115182 1.661726 -2.564840 15.900320 -0.208429 -68.319434 1.608023 -5.575626 60.256349 -2.270390 -4.042897 -23.767152 1.494300 -0.000000 -1.398800 6.232256 -2.891763 10.906697 0.559556 -2.704174 -0.698657 -5.646579 -2.672982 -0.452526 9.732458 -8.775361 -5.787865 -3.492908 -0.251065 0.026233 0.000000 0.000000 0.000000 5.639922 5.166281 1.449340 -64.579608 11.183676 2.180006 -179.815983 -88.392797 -179.975505 -5.021520 2.078660 -0.080693 0.049272 0.246590 0.000000 0.000000 0.000000 0.000000 0.000000 0.000000 0.000000 14.946584 -5.949246 0.746316 70.283394 -8.916890 1.687396 0.524036 70.982170 -0.045199 -11.781103 -2.915922 0.286526 0.173684 -0.185358 -0.000000 0.000000 0.000000 0.000000 0.000000 0.000000 0.000000 
